<svg xmlns="http://www.w3.org/2000/svg" xmlns:xlink="http://www.w3.org/1999/xlink" width="0" height="0" style="position:absolute">
	
		<symbol id="britania2" viewBox="0 0 512 512">
			<path fill="#f0f0f0" d="M0 85.333h512V426.67H0z"></path><path fill="#d80027" d="M288 85.33h-64v138.666H0v64h224v138.666h64V287.996h224v-64H288z"></path><g fill="#0052b4"><path d="M393.785 315.358L512 381.034v-65.676zM311.652 315.358L512 426.662v-31.474l-143.693-79.83zM458.634 426.662l-146.982-81.664v81.664z"></path></g><path fill="#f0f0f0" d="M311.652 315.358L512 426.662v-31.474l-143.693-79.83z"></path><path fill="#d80027" d="M311.652 315.358L512 426.662v-31.474l-143.693-79.83z"></path><g fill="#0052b4"><path d="M90.341 315.356L0 365.546v-50.19zM200.348 329.51v97.151H25.491z"></path></g><path fill="#d80027" d="M143.693 315.358L0 395.188v31.474l200.348-111.304z"></path><g fill="#0052b4"><path d="M118.215 196.634L0 130.958v65.676zM200.348 196.634L0 85.33v31.474l143.693 79.83zM53.366 85.33l146.982 81.664V85.33z"></path></g><path fill="#f0f0f0" d="M200.348 196.634L0 85.33v31.474l143.693 79.83z"></path><path fill="#d80027" d="M200.348 196.634L0 85.33v31.474l143.693 79.83z"></path><g fill="#0052b4"><path d="M421.659 196.636L512 146.446v50.19zM311.652 182.482V85.331h174.857z"></path></g><path fill="#d80027" d="M368.307 196.634L512 116.804V85.33L311.652 196.634z"></path>
		</symbol>
	
		<symbol id="close" viewBox="0 0 512.001 512.001">
			<path d="M284.286 256.002L506.143 34.144c7.811-7.811 7.811-20.475 0-28.285-7.811-7.81-20.475-7.811-28.285 0L256 227.717 34.143 5.859c-7.811-7.811-20.475-7.811-28.285 0-7.81 7.811-7.811 20.475 0 28.285l221.857 221.857L5.858 477.859c-7.811 7.811-7.811 20.475 0 28.285a19.938 19.938 0 0 0 14.143 5.857 19.94 19.94 0 0 0 14.143-5.857L256 284.287l221.857 221.857c3.905 3.905 9.024 5.857 14.143 5.857s10.237-1.952 14.143-5.857c7.811-7.811 7.811-20.475 0-28.285L284.286 256.002z"></path>
		</symbol>
	
		<symbol id="icon-next-back" viewBox="0 0 10 17">
			<title>Shape</title><path d="M1 1l8 7.5L1 16" stroke="#0E0E0E" stroke-width="2" fill="none" fill-rule="evenodd" stroke-linecap="round" stroke-linejoin="round"></path>
		</symbol>
	
		<symbol id="info" viewBox="0 0 524.235 524.235">
			<path d="M262.118 0C117.588 0 0 117.588 0 262.118s117.588 262.118 262.118 262.118 262.118-117.588 262.118-262.118S406.647 0 262.118 0zm17.05 417.639c-12.453 2.076-37.232 7.261-49.815 8.303-10.651.882-20.702-5.215-26.829-13.967a32.756 32.756 0 0 1-3.968-29.997l49.547-136.242h-51.515c-.044-28.389 21.25-49.263 48.485-57.274 12.997-3.824 37.212-9.057 49.809-8.255 7.547.48 20.702 5.215 26.829 13.967a32.756 32.756 0 0 1 3.968 29.997l-49.547 136.242h51.499c.01 28.356-20.49 52.564-48.463 57.226zm15.714-253.815c-18.096 0-32.765-14.671-32.765-32.765 0-18.096 14.669-32.765 32.765-32.765s32.765 14.669 32.765 32.765c0 18.095-14.668 32.765-32.765 32.765z"></path>
		</symbol>
	
		<symbol id="power" viewBox="0 0 512 512">
			<path d="M437.02 74.981C388.668 26.628 324.381 0 256.001 0S123.333 26.628 74.981 74.981C26.63 123.334 0 187.62 0 256s26.628 132.667 74.981 181.019C123.334 485.371 187.62 512 256 512s132.667-26.628 181.019-74.981C485.37 388.667 512 324.38 512 256s-26.629-132.666-74.98-181.019zm-196.033 39.16c0-8.292 6.722-15.014 15.014-15.014s15.014 6.722 15.014 15.014v149.174c0 8.292-6.722 15.014-15.014 15.014s-15.014-6.722-15.014-15.014V114.141zm15.014 293.384c-82.431 0-149.493-67.063-149.493-149.493 0-25.953 6.758-51.523 19.544-73.948 12.39-21.732 30.194-40.17 51.49-53.322 7.052-4.358 16.306-2.171 20.663 4.883 4.358 7.055 2.171 16.306-4.883 20.664-35.556 21.962-56.784 59.99-56.784 101.724 0 65.874 53.592 119.466 119.466 119.466S375.47 323.907 375.47 258.033c0-21.536-4.951-42.249-14.319-59.9-9.299-17.522-23.034-32.141-39.719-42.279-7.086-4.306-9.34-13.54-5.035-20.627 4.306-7.086 13.54-9.34 20.627-5.035 42.876 26.052 68.473 73.843 68.473 127.842-.004 82.428-67.065 149.491-149.496 149.491z"></path>
		</symbol>
	
		<symbol id="russia2" viewBox="0 0 512 512">
			<path fill="#f0f0f0" d="M0 85.33v341.332h512V85.33z"></path><path fill="#0052b4" d="M0 85.333h512V426.67H0z"></path><path fill="#f0f0f0" d="M0 85.333h512v113.775H0z"></path><path fill="#d80027" d="M0 312.884h512v113.775H0z"></path>
		</symbol>
	
		<symbol id="save" viewBox="0 0 512 512">
			<path d="M139.636 372.364h232.727v46.545H139.636zM139.636 465.455V512h232.728v-46.545z"></path><path d="M507.338 133.843L413.823 9.3a23.274 23.274 0 0 0-18.61-9.3h-38.364v193.94c0 12.851-10.42 23.273-23.273 23.273H116.364c-12.853 0-23.273-10.422-23.273-23.273V0H23.273C10.42 0 0 10.422 0 23.273v465.455C0 501.578 10.42 512 23.273 512h69.818V349.09c0-12.854 10.42-23.273 23.273-23.273h279.273c12.853 0 23.273 10.418 23.273 23.273V512h69.818C501.58 512 512 501.578 512 488.727v-340.91a23.28 23.28 0 0 0-4.662-13.974z"></path><path d="M139.636 0v170.667h170.667V0z"></path>
		</symbol>
	
		<symbol id="signs" viewBox="0 0 111.577 111.577">
			<path d="M78.962 99.536l-1.559 6.373c-4.677 1.846-8.413 3.251-11.195 4.217-2.785.969-6.021 1.451-9.708 1.451-5.662 0-10.066-1.387-13.207-4.142-3.141-2.766-4.712-6.271-4.712-10.523 0-1.646.114-3.339.351-5.064.239-1.727.619-3.672 1.139-5.846l5.845-20.688c.52-1.981.962-3.858 1.316-5.633.359-1.764.532-3.387.532-4.848 0-2.642-.547-4.49-1.636-5.529-1.089-1.036-3.167-1.562-6.252-1.562-1.511 0-3.064.242-4.647.71-1.59.47-2.949.924-4.09 1.346l1.563-6.378c3.829-1.559 7.489-2.894 10.99-4.002 3.501-1.111 6.809-1.667 9.938-1.667 5.623 0 9.962 1.359 13.009 4.077 3.047 2.72 4.57 6.246 4.57 10.591 0 .899-.1 2.483-.315 4.747-.21 2.269-.601 4.348-1.171 6.239l-5.82 20.605c-.477 1.655-.906 3.547-1.279 5.676-.385 2.115-.569 3.731-.569 4.815 0 2.736.61 4.604 1.833 5.597 1.232.993 3.354 1.487 6.368 1.487 1.415 0 3.025-.251 4.814-.744 1.784-.493 3.085-.926 3.892-1.305zm1.476-86.506c0 3.59-1.353 6.656-4.072 9.177-2.712 2.53-5.98 3.796-9.803 3.796-3.835 0-7.111-1.266-9.854-3.796-2.738-2.522-4.11-5.587-4.11-9.177 0-3.583 1.372-6.654 4.11-9.207C59.447 1.274 62.729 0 66.563 0c3.822 0 7.091 1.277 9.803 3.823 2.721 2.553 4.072 5.625 4.072 9.207z"></path>
		</symbol>
	
</svg>
